<mxfile host="Electron" modified="2024-05-27T13:32:48.727Z" agent="Mozilla/5.0 (Windows NT 10.0; Win64; x64) AppleWebKit/537.36 (KHTML, like Gecko) draw.io/23.1.5 Chrome/120.0.6099.109 Electron/28.1.0 Safari/537.36" etag="5A3ZTvGbQSYjuPExaddZ" version="23.1.5" type="device">
  <diagram id="R2lEEEUBdFMjLlhIrx00" name="Page-1">
    <mxGraphModel dx="1434" dy="844" grid="1" gridSize="10" guides="1" tooltips="1" connect="1" arrows="1" fold="1" page="1" pageScale="1" pageWidth="850" pageHeight="1100" math="0" shadow="0" extFonts="Permanent Marker^https://fonts.googleapis.com/css?family=Permanent+Marker">
      <root>
        <mxCell id="0" />
        <mxCell id="1" parent="0" />
        <mxCell id="IEAdmJ6O3yn9Wwqw1_bm-3" value="" style="edgeStyle=orthogonalEdgeStyle;rounded=0;orthogonalLoop=1;jettySize=auto;html=1;startArrow=classic;startFill=1;endArrow=none;endFill=0;entryX=0.053;entryY=0.496;entryDx=0;entryDy=0;entryPerimeter=0;" parent="1" source="IEAdmJ6O3yn9Wwqw1_bm-1" target="IEAdmJ6O3yn9Wwqw1_bm-2" edge="1">
          <mxGeometry relative="1" as="geometry" />
        </mxCell>
        <mxCell id="IEAdmJ6O3yn9Wwqw1_bm-11" value="" style="edgeStyle=orthogonalEdgeStyle;rounded=0;orthogonalLoop=1;jettySize=auto;html=1;entryX=0.5;entryY=0.056;entryDx=0;entryDy=0;entryPerimeter=0;startArrow=classic;startFill=1;endArrow=none;endFill=0;exitX=0.75;exitY=1;exitDx=0;exitDy=0;" parent="1" source="IEAdmJ6O3yn9Wwqw1_bm-1" target="IEAdmJ6O3yn9Wwqw1_bm-10" edge="1">
          <mxGeometry relative="1" as="geometry">
            <Array as="points">
              <mxPoint x="430" y="490" />
              <mxPoint x="510" y="490" />
            </Array>
          </mxGeometry>
        </mxCell>
        <mxCell id="IEAdmJ6O3yn9Wwqw1_bm-26" value="" style="edgeStyle=orthogonalEdgeStyle;rounded=0;orthogonalLoop=1;jettySize=auto;html=1;endArrow=none;endFill=0;entryX=0.949;entryY=0.498;entryDx=0;entryDy=0;entryPerimeter=0;" parent="1" source="IEAdmJ6O3yn9Wwqw1_bm-1" target="IEAdmJ6O3yn9Wwqw1_bm-25" edge="1">
          <mxGeometry relative="1" as="geometry" />
        </mxCell>
        <mxCell id="IEAdmJ6O3yn9Wwqw1_bm-1" value="USUARIO" style="rounded=1;whiteSpace=wrap;html=1;" parent="1" vertex="1">
          <mxGeometry x="340" y="390" width="120" height="60" as="geometry" />
        </mxCell>
        <mxCell id="IEAdmJ6O3yn9Wwqw1_bm-5" value="" style="edgeStyle=orthogonalEdgeStyle;rounded=0;orthogonalLoop=1;jettySize=auto;html=1;startArrow=none;startFill=0;endArrow=none;endFill=0;exitX=0.957;exitY=0.5;exitDx=0;exitDy=0;exitPerimeter=0;" parent="1" source="IEAdmJ6O3yn9Wwqw1_bm-2" target="IEAdmJ6O3yn9Wwqw1_bm-4" edge="1">
          <mxGeometry relative="1" as="geometry">
            <mxPoint x="630" y="420" as="sourcePoint" />
            <Array as="points" />
          </mxGeometry>
        </mxCell>
        <mxCell id="IEAdmJ6O3yn9Wwqw1_bm-2" value="Tiene" style="rhombus;whiteSpace=wrap;html=1;rounded=1;" parent="1" vertex="1">
          <mxGeometry x="550" y="380" width="80" height="80" as="geometry" />
        </mxCell>
        <mxCell id="IEAdmJ6O3yn9Wwqw1_bm-4" value="ROL" style="whiteSpace=wrap;html=1;rounded=1;" parent="1" vertex="1">
          <mxGeometry x="700" y="390" width="120" height="60" as="geometry" />
        </mxCell>
        <mxCell id="IEAdmJ6O3yn9Wwqw1_bm-7" value="n,1" style="text;html=1;align=center;verticalAlign=middle;resizable=0;points=[];autosize=1;strokeColor=none;fillColor=none;" parent="1" vertex="1">
          <mxGeometry x="470" y="390" width="40" height="30" as="geometry" />
        </mxCell>
        <mxCell id="IEAdmJ6O3yn9Wwqw1_bm-8" value="1,1" style="text;html=1;align=center;verticalAlign=middle;resizable=0;points=[];autosize=1;strokeColor=none;fillColor=none;" parent="1" vertex="1">
          <mxGeometry x="660" y="390" width="40" height="30" as="geometry" />
        </mxCell>
        <mxCell id="IEAdmJ6O3yn9Wwqw1_bm-9" value="N:1" style="text;html=1;align=center;verticalAlign=middle;resizable=0;points=[];autosize=1;strokeColor=none;fillColor=none;" parent="1" vertex="1">
          <mxGeometry x="570" y="350" width="40" height="30" as="geometry" />
        </mxCell>
        <mxCell id="IEAdmJ6O3yn9Wwqw1_bm-14" value="" style="edgeStyle=orthogonalEdgeStyle;rounded=0;orthogonalLoop=1;jettySize=auto;html=1;exitX=0.501;exitY=0.942;exitDx=0;exitDy=0;exitPerimeter=0;entryX=0.822;entryY=0.041;entryDx=0;entryDy=0;entryPerimeter=0;" parent="1" source="IEAdmJ6O3yn9Wwqw1_bm-10" target="IEAdmJ6O3yn9Wwqw1_bm-13" edge="1">
          <mxGeometry relative="1" as="geometry">
            <Array as="points">
              <mxPoint x="510" y="650" />
              <mxPoint x="449" y="650" />
            </Array>
          </mxGeometry>
        </mxCell>
        <mxCell id="IEAdmJ6O3yn9Wwqw1_bm-10" value="Consume" style="rhombus;whiteSpace=wrap;html=1;rounded=1;" parent="1" vertex="1">
          <mxGeometry x="470" y="530" width="80" height="80" as="geometry" />
        </mxCell>
        <mxCell id="IEAdmJ6O3yn9Wwqw1_bm-19" value="" style="edgeStyle=orthogonalEdgeStyle;rounded=0;orthogonalLoop=1;jettySize=auto;html=1;entryX=0.495;entryY=0.961;entryDx=0;entryDy=0;entryPerimeter=0;endArrow=none;endFill=0;exitX=0.25;exitY=0;exitDx=0;exitDy=0;" parent="1" source="IEAdmJ6O3yn9Wwqw1_bm-13" target="IEAdmJ6O3yn9Wwqw1_bm-18" edge="1">
          <mxGeometry relative="1" as="geometry">
            <Array as="points">
              <mxPoint x="370" y="700" />
              <mxPoint x="370" y="650" />
              <mxPoint x="300" y="650" />
            </Array>
          </mxGeometry>
        </mxCell>
        <mxCell id="IEAdmJ6O3yn9Wwqw1_bm-13" value="ACTIVIDAD" style="whiteSpace=wrap;html=1;rounded=1;" parent="1" vertex="1">
          <mxGeometry x="350" y="700" width="120" height="60" as="geometry" />
        </mxCell>
        <mxCell id="IEAdmJ6O3yn9Wwqw1_bm-15" value="0,n" style="text;html=1;align=center;verticalAlign=middle;resizable=0;points=[];autosize=1;strokeColor=none;fillColor=none;" parent="1" vertex="1">
          <mxGeometry x="460" y="650" width="40" height="30" as="geometry" />
        </mxCell>
        <mxCell id="IEAdmJ6O3yn9Wwqw1_bm-16" value="1,m" style="text;html=1;align=center;verticalAlign=middle;resizable=0;points=[];autosize=1;strokeColor=none;fillColor=none;" parent="1" vertex="1">
          <mxGeometry x="450" y="460" width="40" height="30" as="geometry" />
        </mxCell>
        <mxCell id="IEAdmJ6O3yn9Wwqw1_bm-17" value="N:M" style="text;html=1;align=center;verticalAlign=middle;resizable=0;points=[];autosize=1;strokeColor=none;fillColor=none;" parent="1" vertex="1">
          <mxGeometry x="550" y="555" width="50" height="30" as="geometry" />
        </mxCell>
        <mxCell id="IEAdmJ6O3yn9Wwqw1_bm-20" style="edgeStyle=orthogonalEdgeStyle;rounded=0;orthogonalLoop=1;jettySize=auto;html=1;entryX=0.25;entryY=1;entryDx=0;entryDy=0;exitX=0.506;exitY=0.056;exitDx=0;exitDy=0;exitPerimeter=0;" parent="1" source="IEAdmJ6O3yn9Wwqw1_bm-18" target="IEAdmJ6O3yn9Wwqw1_bm-1" edge="1">
          <mxGeometry relative="1" as="geometry">
            <Array as="points">
              <mxPoint x="301" y="490" />
              <mxPoint x="370" y="490" />
            </Array>
          </mxGeometry>
        </mxCell>
        <mxCell id="IEAdmJ6O3yn9Wwqw1_bm-18" value="Oferta" style="rhombus;whiteSpace=wrap;html=1;rounded=1;" parent="1" vertex="1">
          <mxGeometry x="260" y="530" width="80" height="80" as="geometry" />
        </mxCell>
        <mxCell id="IEAdmJ6O3yn9Wwqw1_bm-21" value="&lt;div&gt;0,n&lt;/div&gt;" style="text;html=1;align=center;verticalAlign=middle;resizable=0;points=[];autosize=1;strokeColor=none;fillColor=none;" parent="1" vertex="1">
          <mxGeometry x="310" y="650" width="40" height="30" as="geometry" />
        </mxCell>
        <mxCell id="IEAdmJ6O3yn9Wwqw1_bm-22" value="1,1" style="text;html=1;align=center;verticalAlign=middle;resizable=0;points=[];autosize=1;strokeColor=none;fillColor=none;" parent="1" vertex="1">
          <mxGeometry x="320" y="450" width="40" height="30" as="geometry" />
        </mxCell>
        <mxCell id="IEAdmJ6O3yn9Wwqw1_bm-23" value="1:N" style="text;html=1;align=center;verticalAlign=middle;resizable=0;points=[];autosize=1;strokeColor=none;fillColor=none;" parent="1" vertex="1">
          <mxGeometry x="220" y="555" width="40" height="30" as="geometry" />
        </mxCell>
        <mxCell id="IEAdmJ6O3yn9Wwqw1_bm-28" value="" style="edgeStyle=orthogonalEdgeStyle;rounded=0;orthogonalLoop=1;jettySize=auto;html=1;exitX=0.073;exitY=0.506;exitDx=0;exitDy=0;exitPerimeter=0;" parent="1" source="IEAdmJ6O3yn9Wwqw1_bm-25" target="IEAdmJ6O3yn9Wwqw1_bm-27" edge="1">
          <mxGeometry relative="1" as="geometry" />
        </mxCell>
        <mxCell id="IEAdmJ6O3yn9Wwqw1_bm-25" value="Crea" style="rhombus;whiteSpace=wrap;html=1;rounded=1;" parent="1" vertex="1">
          <mxGeometry x="210" y="380" width="80" height="80" as="geometry" />
        </mxCell>
        <mxCell id="IEAdmJ6O3yn9Wwqw1_bm-27" value="SOLICITUD_ACTIVIDAD" style="whiteSpace=wrap;html=1;rounded=1;" parent="1" vertex="1">
          <mxGeometry x="20" y="390" width="150" height="60" as="geometry" />
        </mxCell>
        <mxCell id="IEAdmJ6O3yn9Wwqw1_bm-29" value="0,n" style="text;html=1;align=center;verticalAlign=middle;resizable=0;points=[];autosize=1;strokeColor=none;fillColor=none;" parent="1" vertex="1">
          <mxGeometry x="170" y="390" width="40" height="30" as="geometry" />
        </mxCell>
        <mxCell id="IEAdmJ6O3yn9Wwqw1_bm-30" value="1,1" style="text;html=1;align=center;verticalAlign=middle;resizable=0;points=[];autosize=1;strokeColor=none;fillColor=none;" parent="1" vertex="1">
          <mxGeometry x="290" y="390" width="40" height="30" as="geometry" />
        </mxCell>
        <mxCell id="IEAdmJ6O3yn9Wwqw1_bm-31" value="N:1" style="text;html=1;align=center;verticalAlign=middle;resizable=0;points=[];autosize=1;strokeColor=none;fillColor=none;" parent="1" vertex="1">
          <mxGeometry x="230" y="360" width="40" height="30" as="geometry" />
        </mxCell>
        <mxCell id="u7QORieip5k8J5XMnJg_-28" style="rounded=0;orthogonalLoop=1;jettySize=auto;html=1;endArrow=none;endFill=0;entryX=0.5;entryY=1;entryDx=0;entryDy=0;" parent="1" source="u7QORieip5k8J5XMnJg_-27" target="IEAdmJ6O3yn9Wwqw1_bm-27" edge="1">
          <mxGeometry relative="1" as="geometry" />
        </mxCell>
        <mxCell id="u7QORieip5k8J5XMnJg_-27" value="&lt;u&gt;&lt;b&gt;id&lt;/b&gt;&lt;/u&gt;" style="ellipse;whiteSpace=wrap;html=1;" parent="1" vertex="1">
          <mxGeometry y="470" width="80" height="50" as="geometry" />
        </mxCell>
        <mxCell id="5NGX53n5J--UkW9QCRAu-3" style="rounded=0;orthogonalLoop=1;jettySize=auto;html=1;endArrow=none;endFill=0;entryX=0.5;entryY=1;entryDx=0;entryDy=0;" parent="1" source="5NGX53n5J--UkW9QCRAu-4" target="IEAdmJ6O3yn9Wwqw1_bm-27" edge="1">
          <mxGeometry relative="1" as="geometry">
            <mxPoint x="103" y="630" as="targetPoint" />
          </mxGeometry>
        </mxCell>
        <mxCell id="5NGX53n5J--UkW9QCRAu-4" value="nombre" style="ellipse;whiteSpace=wrap;html=1;" parent="1" vertex="1">
          <mxGeometry x="170" y="480" width="80" height="50" as="geometry" />
        </mxCell>
        <mxCell id="5NGX53n5J--UkW9QCRAu-5" style="rounded=0;orthogonalLoop=1;jettySize=auto;html=1;endArrow=none;endFill=0;entryX=0.5;entryY=1;entryDx=0;entryDy=0;" parent="1" source="5NGX53n5J--UkW9QCRAu-6" target="IEAdmJ6O3yn9Wwqw1_bm-27" edge="1">
          <mxGeometry relative="1" as="geometry">
            <mxPoint x="98" y="626" as="targetPoint" />
          </mxGeometry>
        </mxCell>
        <mxCell id="5NGX53n5J--UkW9QCRAu-6" value="concepto" style="ellipse;whiteSpace=wrap;html=1;" parent="1" vertex="1">
          <mxGeometry x="150" y="580" width="80" height="50" as="geometry" />
        </mxCell>
        <mxCell id="5NGX53n5J--UkW9QCRAu-9" style="rounded=0;orthogonalLoop=1;jettySize=auto;html=1;endArrow=none;endFill=0;entryX=0.5;entryY=1;entryDx=0;entryDy=0;" parent="1" source="5NGX53n5J--UkW9QCRAu-10" target="IEAdmJ6O3yn9Wwqw1_bm-4" edge="1">
          <mxGeometry relative="1" as="geometry">
            <mxPoint x="760" y="390" as="targetPoint" />
          </mxGeometry>
        </mxCell>
        <mxCell id="5NGX53n5J--UkW9QCRAu-10" value="nombre" style="ellipse;whiteSpace=wrap;html=1;" parent="1" vertex="1">
          <mxGeometry x="660" y="508" width="80" height="50" as="geometry" />
        </mxCell>
        <mxCell id="5NGX53n5J--UkW9QCRAu-11" style="rounded=0;orthogonalLoop=1;jettySize=auto;html=1;endArrow=none;endFill=0;entryX=0.5;entryY=1;entryDx=0;entryDy=0;" parent="1" source="5NGX53n5J--UkW9QCRAu-12" target="IEAdmJ6O3yn9Wwqw1_bm-4" edge="1">
          <mxGeometry relative="1" as="geometry">
            <mxPoint x="750" y="450" as="targetPoint" />
          </mxGeometry>
        </mxCell>
        <mxCell id="5NGX53n5J--UkW9QCRAu-12" value="&lt;u&gt;&lt;b&gt;id&lt;/b&gt;&lt;/u&gt;" style="ellipse;whiteSpace=wrap;html=1;" parent="1" vertex="1">
          <mxGeometry x="760" y="508" width="80" height="50" as="geometry" />
        </mxCell>
        <mxCell id="5NGX53n5J--UkW9QCRAu-13" style="rounded=0;orthogonalLoop=1;jettySize=auto;html=1;endArrow=none;endFill=0;entryX=0.5;entryY=0;entryDx=0;entryDy=0;" parent="1" source="5NGX53n5J--UkW9QCRAu-14" target="IEAdmJ6O3yn9Wwqw1_bm-1" edge="1">
          <mxGeometry relative="1" as="geometry">
            <mxPoint x="575" y="-30" as="targetPoint" />
          </mxGeometry>
        </mxCell>
        <mxCell id="5NGX53n5J--UkW9QCRAu-14" value="&lt;u&gt;&lt;b&gt;id&lt;/b&gt;&lt;/u&gt;" style="ellipse;whiteSpace=wrap;html=1;" parent="1" vertex="1">
          <mxGeometry x="595" y="300" width="80" height="50" as="geometry" />
        </mxCell>
        <mxCell id="5NGX53n5J--UkW9QCRAu-15" value="email" style="ellipse;whiteSpace=wrap;html=1;" parent="1" vertex="1">
          <mxGeometry x="480" y="30" width="80" height="50" as="geometry" />
        </mxCell>
        <mxCell id="5NGX53n5J--UkW9QCRAu-16" value="nombre" style="ellipse;whiteSpace=wrap;html=1;" parent="1" vertex="1">
          <mxGeometry x="190" y="40" width="80" height="50" as="geometry" />
        </mxCell>
        <mxCell id="5NGX53n5J--UkW9QCRAu-17" value="apellidos" style="ellipse;whiteSpace=wrap;html=1;" parent="1" vertex="1">
          <mxGeometry x="30" y="118" width="80" height="50" as="geometry" />
        </mxCell>
        <mxCell id="5NGX53n5J--UkW9QCRAu-19" value="passwd" style="ellipse;whiteSpace=wrap;html=1;" parent="1" vertex="1">
          <mxGeometry x="300" y="80" width="80" height="50" as="geometry" />
        </mxCell>
        <mxCell id="5NGX53n5J--UkW9QCRAu-20" value="fecha_nacimiento" style="ellipse;whiteSpace=wrap;html=1;" parent="1" vertex="1">
          <mxGeometry x="155" y="110" width="110" height="58" as="geometry" />
        </mxCell>
        <mxCell id="5NGX53n5J--UkW9QCRAu-21" value="ciudad" style="ellipse;whiteSpace=wrap;html=1;" parent="1" vertex="1">
          <mxGeometry x="595" y="180" width="80" height="50" as="geometry" />
        </mxCell>
        <mxCell id="5NGX53n5J--UkW9QCRAu-23" value="id_rol" style="ellipse;whiteSpace=wrap;html=1;" parent="1" vertex="1">
          <mxGeometry x="595" y="76" width="80" height="50" as="geometry" />
        </mxCell>
        <mxCell id="5NGX53n5J--UkW9QCRAu-25" style="rounded=0;orthogonalLoop=1;jettySize=auto;html=1;endArrow=none;endFill=0;entryX=0.5;entryY=0;entryDx=0;entryDy=0;" parent="1" source="5NGX53n5J--UkW9QCRAu-15" target="IEAdmJ6O3yn9Wwqw1_bm-1" edge="1">
          <mxGeometry relative="1" as="geometry">
            <mxPoint x="330" y="132" as="targetPoint" />
            <mxPoint x="476" y="47" as="sourcePoint" />
          </mxGeometry>
        </mxCell>
        <mxCell id="5NGX53n5J--UkW9QCRAu-27" style="rounded=0;orthogonalLoop=1;jettySize=auto;html=1;endArrow=none;endFill=0;entryX=0.5;entryY=0;entryDx=0;entryDy=0;exitX=0.683;exitY=1.013;exitDx=0;exitDy=0;exitPerimeter=0;" parent="1" source="5NGX53n5J--UkW9QCRAu-19" target="IEAdmJ6O3yn9Wwqw1_bm-1" edge="1">
          <mxGeometry relative="1" as="geometry">
            <mxPoint x="290" y="164" as="targetPoint" />
            <mxPoint x="369" y="50" as="sourcePoint" />
          </mxGeometry>
        </mxCell>
        <mxCell id="5NGX53n5J--UkW9QCRAu-28" style="rounded=0;orthogonalLoop=1;jettySize=auto;html=1;endArrow=none;endFill=0;entryX=0.5;entryY=0;entryDx=0;entryDy=0;" parent="1" source="5NGX53n5J--UkW9QCRAu-17" target="IEAdmJ6O3yn9Wwqw1_bm-1" edge="1">
          <mxGeometry relative="1" as="geometry">
            <mxPoint x="405" y="232" as="targetPoint" />
            <mxPoint x="350" y="131" as="sourcePoint" />
          </mxGeometry>
        </mxCell>
        <mxCell id="5NGX53n5J--UkW9QCRAu-29" style="rounded=0;orthogonalLoop=1;jettySize=auto;html=1;endArrow=none;endFill=0;entryX=0.5;entryY=0;entryDx=0;entryDy=0;exitX=1;exitY=1;exitDx=0;exitDy=0;" parent="1" source="5NGX53n5J--UkW9QCRAu-16" target="IEAdmJ6O3yn9Wwqw1_bm-1" edge="1">
          <mxGeometry relative="1" as="geometry">
            <mxPoint x="357.5" y="151" as="targetPoint" />
            <mxPoint x="302.5" y="50" as="sourcePoint" />
          </mxGeometry>
        </mxCell>
        <mxCell id="5NGX53n5J--UkW9QCRAu-30" style="rounded=0;orthogonalLoop=1;jettySize=auto;html=1;endArrow=none;endFill=0;entryX=0.5;entryY=0;entryDx=0;entryDy=0;exitX=0;exitY=1;exitDx=0;exitDy=0;" parent="1" source="5NGX53n5J--UkW9QCRAu-21" target="IEAdmJ6O3yn9Wwqw1_bm-1" edge="1">
          <mxGeometry relative="1" as="geometry">
            <mxPoint x="410" y="152" as="targetPoint" />
            <mxPoint x="526" y="22" as="sourcePoint" />
          </mxGeometry>
        </mxCell>
        <mxCell id="5NGX53n5J--UkW9QCRAu-31" value="id_solicitud" style="ellipse;whiteSpace=wrap;html=1;" parent="1" vertex="1">
          <mxGeometry x="55" y="220" width="80" height="50" as="geometry" />
        </mxCell>
        <mxCell id="5NGX53n5J--UkW9QCRAu-32" style="rounded=0;orthogonalLoop=1;jettySize=auto;html=1;endArrow=none;endFill=0;entryX=0.5;entryY=0;entryDx=0;entryDy=0;" parent="1" source="5NGX53n5J--UkW9QCRAu-23" target="IEAdmJ6O3yn9Wwqw1_bm-1" edge="1">
          <mxGeometry relative="1" as="geometry">
            <mxPoint x="400" y="140" as="targetPoint" />
            <mxPoint x="158" y="-108" as="sourcePoint" />
          </mxGeometry>
        </mxCell>
        <mxCell id="5NGX53n5J--UkW9QCRAu-33" style="rounded=0;orthogonalLoop=1;jettySize=auto;html=1;endArrow=none;endFill=0;exitX=0.77;exitY=0.954;exitDx=0;exitDy=0;exitPerimeter=0;entryX=0.5;entryY=0;entryDx=0;entryDy=0;" parent="1" source="5NGX53n5J--UkW9QCRAu-20" target="IEAdmJ6O3yn9Wwqw1_bm-1" edge="1">
          <mxGeometry relative="1" as="geometry">
            <mxPoint x="320" y="220" as="targetPoint" />
            <mxPoint x="80" y="-40" as="sourcePoint" />
          </mxGeometry>
        </mxCell>
        <mxCell id="5NGX53n5J--UkW9QCRAu-34" style="rounded=0;orthogonalLoop=1;jettySize=auto;html=1;endArrow=none;endFill=0;exitX=0.932;exitY=0.712;exitDx=0;exitDy=0;entryX=0.5;entryY=0;entryDx=0;entryDy=0;exitPerimeter=0;" parent="1" source="5NGX53n5J--UkW9QCRAu-31" target="IEAdmJ6O3yn9Wwqw1_bm-1" edge="1">
          <mxGeometry relative="1" as="geometry">
            <mxPoint x="310" y="307" as="targetPoint" />
            <mxPoint x="70" y="47" as="sourcePoint" />
          </mxGeometry>
        </mxCell>
        <mxCell id="5NGX53n5J--UkW9QCRAu-35" style="rounded=0;orthogonalLoop=1;jettySize=auto;html=1;endArrow=none;endFill=0;entryX=0.5;entryY=1;entryDx=0;entryDy=0;exitX=0.5;exitY=0;exitDx=0;exitDy=0;" parent="1" source="5NGX53n5J--UkW9QCRAu-36" target="IEAdmJ6O3yn9Wwqw1_bm-13" edge="1">
          <mxGeometry relative="1" as="geometry">
            <mxPoint x="429.99999999999955" y="710" as="targetPoint" />
            <mxPoint x="430" y="930" as="sourcePoint" />
          </mxGeometry>
        </mxCell>
        <mxCell id="5NGX53n5J--UkW9QCRAu-36" value="&lt;u&gt;&lt;b&gt;id&lt;/b&gt;&lt;/u&gt;" style="ellipse;whiteSpace=wrap;html=1;" parent="1" vertex="1">
          <mxGeometry x="385" y="980" width="80" height="50" as="geometry" />
        </mxCell>
        <mxCell id="5NGX53n5J--UkW9QCRAu-37" value="nombre" style="ellipse;whiteSpace=wrap;html=1;" parent="1" vertex="1">
          <mxGeometry x="135" y="940" width="80" height="50" as="geometry" />
        </mxCell>
        <mxCell id="5NGX53n5J--UkW9QCRAu-39" style="rounded=0;orthogonalLoop=1;jettySize=auto;html=1;endArrow=none;endFill=0;entryX=0.5;entryY=1;entryDx=0;entryDy=0;exitX=0.74;exitY=0.08;exitDx=0;exitDy=0;exitPerimeter=0;" parent="1" source="5NGX53n5J--UkW9QCRAu-37" target="IEAdmJ6O3yn9Wwqw1_bm-13" edge="1">
          <mxGeometry relative="1" as="geometry">
            <mxPoint x="420" y="770" as="targetPoint" />
            <mxPoint x="420" y="880" as="sourcePoint" />
          </mxGeometry>
        </mxCell>
        <mxCell id="5NGX53n5J--UkW9QCRAu-40" value="&lt;div style=&quot;color: rgb(204, 204, 204); background-color: rgb(31, 31, 31); font-family: Consolas, &amp;quot;Courier New&amp;quot;, monospace; font-size: 14px; line-height: 19px;&quot;&gt;duracion_aproximada&lt;/div&gt;" style="ellipse;whiteSpace=wrap;html=1;" parent="1" vertex="1">
          <mxGeometry x="5" y="790" width="180" height="50" as="geometry" />
        </mxCell>
        <mxCell id="5NGX53n5J--UkW9QCRAu-41" style="rounded=0;orthogonalLoop=1;jettySize=auto;html=1;endArrow=none;endFill=0;entryX=0.5;entryY=1;entryDx=0;entryDy=0;exitX=1;exitY=0;exitDx=0;exitDy=0;" parent="1" source="5NGX53n5J--UkW9QCRAu-40" target="IEAdmJ6O3yn9Wwqw1_bm-13" edge="1">
          <mxGeometry relative="1" as="geometry">
            <mxPoint x="340" y="720" as="targetPoint" />
            <mxPoint x="259" y="824" as="sourcePoint" />
          </mxGeometry>
        </mxCell>
        <mxCell id="5NGX53n5J--UkW9QCRAu-42" value="personal" style="ellipse;whiteSpace=wrap;html=1;" parent="1" vertex="1">
          <mxGeometry x="530" y="990" width="80" height="50" as="geometry" />
        </mxCell>
        <mxCell id="5NGX53n5J--UkW9QCRAu-43" value="transporte" style="ellipse;whiteSpace=wrap;html=1;" parent="1" vertex="1">
          <mxGeometry x="720" y="740" width="80" height="50" as="geometry" />
        </mxCell>
        <mxCell id="5NGX53n5J--UkW9QCRAu-44" value="material" style="ellipse;whiteSpace=wrap;html=1;" parent="1" vertex="1">
          <mxGeometry x="10" y="860" width="80" height="50" as="geometry" />
        </mxCell>
        <mxCell id="5NGX53n5J--UkW9QCRAu-45" value="ciudad" style="ellipse;whiteSpace=wrap;html=1;" parent="1" vertex="1">
          <mxGeometry x="630" y="770" width="80" height="50" as="geometry" />
        </mxCell>
        <mxCell id="5NGX53n5J--UkW9QCRAu-46" value="hora_inicio" style="ellipse;whiteSpace=wrap;html=1;" parent="1" vertex="1">
          <mxGeometry x="700" y="840" width="80" height="50" as="geometry" />
        </mxCell>
        <mxCell id="5NGX53n5J--UkW9QCRAu-47" value="hora_fin" style="ellipse;whiteSpace=wrap;html=1;" parent="1" vertex="1">
          <mxGeometry x="620" y="870" width="80" height="50" as="geometry" />
        </mxCell>
        <mxCell id="5NGX53n5J--UkW9QCRAu-48" style="rounded=0;orthogonalLoop=1;jettySize=auto;html=1;endArrow=none;endFill=0;exitX=0;exitY=0;exitDx=0;exitDy=0;" parent="1" source="5NGX53n5J--UkW9QCRAu-47" edge="1">
          <mxGeometry relative="1" as="geometry">
            <mxPoint x="410" y="760" as="targetPoint" />
            <mxPoint x="460" y="920" as="sourcePoint" />
          </mxGeometry>
        </mxCell>
        <mxCell id="5NGX53n5J--UkW9QCRAu-49" style="rounded=0;orthogonalLoop=1;jettySize=auto;html=1;endArrow=none;endFill=0;entryX=0.5;entryY=1;entryDx=0;entryDy=0;exitX=0;exitY=0.5;exitDx=0;exitDy=0;" parent="1" source="5NGX53n5J--UkW9QCRAu-45" target="IEAdmJ6O3yn9Wwqw1_bm-13" edge="1">
          <mxGeometry relative="1" as="geometry">
            <mxPoint x="430" y="780" as="targetPoint" />
            <mxPoint x="430" y="930" as="sourcePoint" />
          </mxGeometry>
        </mxCell>
        <mxCell id="5NGX53n5J--UkW9QCRAu-50" value="dia" style="ellipse;whiteSpace=wrap;html=1;" parent="1" vertex="1">
          <mxGeometry x="540" y="910" width="80" height="50" as="geometry" />
        </mxCell>
        <mxCell id="5NGX53n5J--UkW9QCRAu-51" value="precio" style="ellipse;whiteSpace=wrap;html=1;" parent="1" vertex="1">
          <mxGeometry x="280" y="960" width="80" height="50" as="geometry" />
        </mxCell>
        <mxCell id="5NGX53n5J--UkW9QCRAu-52" value="n_plazas" style="ellipse;whiteSpace=wrap;html=1;" parent="1" vertex="1">
          <mxGeometry x="40" y="730" width="80" height="50" as="geometry" />
        </mxCell>
        <mxCell id="5NGX53n5J--UkW9QCRAu-53" value="n_plazas_min" style="ellipse;whiteSpace=wrap;html=1;" parent="1" vertex="1">
          <mxGeometry x="20" y="960" width="80" height="50" as="geometry" />
        </mxCell>
        <mxCell id="5NGX53n5J--UkW9QCRAu-54" value="n_plazas_max" style="ellipse;whiteSpace=wrap;html=1;" parent="1" vertex="1">
          <mxGeometry x="330" y="1040" width="80" height="50" as="geometry" />
        </mxCell>
        <mxCell id="5NGX53n5J--UkW9QCRAu-55" value="preparacion_f" style="ellipse;whiteSpace=wrap;html=1;" parent="1" vertex="1">
          <mxGeometry x="445" y="1040" width="90" height="50" as="geometry" />
        </mxCell>
        <mxCell id="5NGX53n5J--UkW9QCRAu-56" value="id_usuario_creador" style="ellipse;whiteSpace=wrap;html=1;" parent="1" vertex="1">
          <mxGeometry x="630" y="930" width="120" height="60" as="geometry" />
        </mxCell>
        <mxCell id="5NGX53n5J--UkW9QCRAu-57" style="rounded=0;orthogonalLoop=1;jettySize=auto;html=1;endArrow=none;endFill=0;entryX=0.5;entryY=1;entryDx=0;entryDy=0;exitX=1;exitY=0;exitDx=0;exitDy=0;" parent="1" source="5NGX53n5J--UkW9QCRAu-44" target="IEAdmJ6O3yn9Wwqw1_bm-13" edge="1">
          <mxGeometry relative="1" as="geometry">
            <mxPoint x="361" y="756" as="targetPoint" />
            <mxPoint x="230" y="900" as="sourcePoint" />
          </mxGeometry>
        </mxCell>
        <mxCell id="5NGX53n5J--UkW9QCRAu-58" style="rounded=0;orthogonalLoop=1;jettySize=auto;html=1;endArrow=none;endFill=0;exitX=0.642;exitY=0;exitDx=0;exitDy=0;exitPerimeter=0;" parent="1" source="5NGX53n5J--UkW9QCRAu-51" edge="1">
          <mxGeometry relative="1" as="geometry">
            <mxPoint x="410" y="760" as="targetPoint" />
            <mxPoint x="299" y="924" as="sourcePoint" />
          </mxGeometry>
        </mxCell>
        <mxCell id="5NGX53n5J--UkW9QCRAu-59" style="rounded=0;orthogonalLoop=1;jettySize=auto;html=1;endArrow=none;endFill=0;exitX=0;exitY=0;exitDx=0;exitDy=0;" parent="1" source="5NGX53n5J--UkW9QCRAu-42" edge="1">
          <mxGeometry relative="1" as="geometry">
            <mxPoint x="410" y="760" as="targetPoint" />
            <mxPoint x="309" y="934" as="sourcePoint" />
          </mxGeometry>
        </mxCell>
        <mxCell id="5NGX53n5J--UkW9QCRAu-60" style="rounded=0;orthogonalLoop=1;jettySize=auto;html=1;endArrow=none;endFill=0;entryX=0.5;entryY=1;entryDx=0;entryDy=0;" parent="1" source="5NGX53n5J--UkW9QCRAu-52" target="IEAdmJ6O3yn9Wwqw1_bm-13" edge="1">
          <mxGeometry relative="1" as="geometry">
            <mxPoint x="450" y="800" as="targetPoint" />
            <mxPoint x="319" y="944" as="sourcePoint" />
          </mxGeometry>
        </mxCell>
        <mxCell id="5NGX53n5J--UkW9QCRAu-62" style="rounded=0;orthogonalLoop=1;jettySize=auto;html=1;endArrow=none;endFill=0;exitX=1;exitY=0;exitDx=0;exitDy=0;" parent="1" source="5NGX53n5J--UkW9QCRAu-53" edge="1">
          <mxGeometry relative="1" as="geometry">
            <mxPoint x="410" y="760" as="targetPoint" />
            <mxPoint x="329" y="954" as="sourcePoint" />
          </mxGeometry>
        </mxCell>
        <mxCell id="5NGX53n5J--UkW9QCRAu-63" style="rounded=0;orthogonalLoop=1;jettySize=auto;html=1;endArrow=none;endFill=0;entryX=0;entryY=0.5;entryDx=0;entryDy=0;" parent="1" target="5NGX53n5J--UkW9QCRAu-43" edge="1">
          <mxGeometry relative="1" as="geometry">
            <mxPoint x="470" y="820" as="targetPoint" />
            <mxPoint x="410" y="760" as="sourcePoint" />
          </mxGeometry>
        </mxCell>
        <mxCell id="5NGX53n5J--UkW9QCRAu-64" style="rounded=0;orthogonalLoop=1;jettySize=auto;html=1;endArrow=none;endFill=0;entryX=0.5;entryY=0;entryDx=0;entryDy=0;" parent="1" target="5NGX53n5J--UkW9QCRAu-54" edge="1">
          <mxGeometry relative="1" as="geometry">
            <mxPoint x="480" y="830" as="targetPoint" />
            <mxPoint x="410" y="760" as="sourcePoint" />
          </mxGeometry>
        </mxCell>
        <mxCell id="5NGX53n5J--UkW9QCRAu-65" style="rounded=0;orthogonalLoop=1;jettySize=auto;html=1;endArrow=none;endFill=0;exitX=0.5;exitY=0;exitDx=0;exitDy=0;" parent="1" source="5NGX53n5J--UkW9QCRAu-55" edge="1">
          <mxGeometry relative="1" as="geometry">
            <mxPoint x="410" y="760" as="targetPoint" />
            <mxPoint x="359" y="984" as="sourcePoint" />
          </mxGeometry>
        </mxCell>
        <mxCell id="5NGX53n5J--UkW9QCRAu-66" style="rounded=0;orthogonalLoop=1;jettySize=auto;html=1;endArrow=none;endFill=0;entryX=0;entryY=0.5;entryDx=0;entryDy=0;" parent="1" target="5NGX53n5J--UkW9QCRAu-46" edge="1">
          <mxGeometry relative="1" as="geometry">
            <mxPoint x="500" y="850" as="targetPoint" />
            <mxPoint x="420" y="760" as="sourcePoint" />
          </mxGeometry>
        </mxCell>
        <mxCell id="5NGX53n5J--UkW9QCRAu-67" style="rounded=0;orthogonalLoop=1;jettySize=auto;html=1;endArrow=none;endFill=0;entryX=0;entryY=0;entryDx=0;entryDy=0;" parent="1" target="5NGX53n5J--UkW9QCRAu-56" edge="1">
          <mxGeometry relative="1" as="geometry">
            <mxPoint x="510" y="860" as="targetPoint" />
            <mxPoint x="410" y="760" as="sourcePoint" />
          </mxGeometry>
        </mxCell>
        <mxCell id="5NGX53n5J--UkW9QCRAu-68" style="rounded=0;orthogonalLoop=1;jettySize=auto;html=1;endArrow=none;endFill=0;entryX=0;entryY=0;entryDx=0;entryDy=0;" parent="1" target="5NGX53n5J--UkW9QCRAu-50" edge="1">
          <mxGeometry relative="1" as="geometry">
            <mxPoint x="520" y="870" as="targetPoint" />
            <mxPoint x="410" y="760" as="sourcePoint" />
          </mxGeometry>
        </mxCell>
        <mxCell id="5NGX53n5J--UkW9QCRAu-69" value="duracion" style="ellipse;whiteSpace=wrap;html=1;" parent="1" vertex="1">
          <mxGeometry x="160" y="1040" width="80" height="50" as="geometry" />
        </mxCell>
        <mxCell id="5NGX53n5J--UkW9QCRAu-70" style="rounded=0;orthogonalLoop=1;jettySize=auto;html=1;endArrow=none;endFill=0;exitX=0.5;exitY=0;exitDx=0;exitDy=0;" parent="1" source="5NGX53n5J--UkW9QCRAu-69" edge="1">
          <mxGeometry relative="1" as="geometry">
            <mxPoint x="410" y="760" as="targetPoint" />
            <mxPoint x="490" y="1050" as="sourcePoint" />
          </mxGeometry>
        </mxCell>
        <mxCell id="YtxT0GbqP-JyY-8f06fU-1" value="n_telefono" style="ellipse;whiteSpace=wrap;html=1;" parent="1" vertex="1">
          <mxGeometry x="660" y="240" width="80" height="50" as="geometry" />
        </mxCell>
        <mxCell id="YtxT0GbqP-JyY-8f06fU-2" style="rounded=0;orthogonalLoop=1;jettySize=auto;html=1;endArrow=none;endFill=0;exitX=0;exitY=0.5;exitDx=0;exitDy=0;" parent="1" source="YtxT0GbqP-JyY-8f06fU-1" edge="1">
          <mxGeometry relative="1" as="geometry">
            <mxPoint x="400" y="390" as="targetPoint" />
            <mxPoint x="617" y="233" as="sourcePoint" />
          </mxGeometry>
        </mxCell>
        <mxCell id="8gFQxWh9cMwkm3lbfBSL-1" value="ciudad" style="ellipse;whiteSpace=wrap;html=1;" parent="1" vertex="1">
          <mxGeometry x="40" y="580" width="80" height="50" as="geometry" />
        </mxCell>
        <mxCell id="8gFQxWh9cMwkm3lbfBSL-2" style="rounded=0;orthogonalLoop=1;jettySize=auto;html=1;endArrow=none;endFill=0;entryX=0.5;entryY=1;entryDx=0;entryDy=0;exitX=0.713;exitY=0.06;exitDx=0;exitDy=0;exitPerimeter=0;" parent="1" source="8gFQxWh9cMwkm3lbfBSL-1" target="IEAdmJ6O3yn9Wwqw1_bm-27" edge="1">
          <mxGeometry relative="1" as="geometry">
            <mxPoint x="105" y="460" as="targetPoint" />
            <mxPoint x="186" y="592" as="sourcePoint" />
          </mxGeometry>
        </mxCell>
        <mxCell id="8gFQxWh9cMwkm3lbfBSL-3" value="nombre" style="ellipse;whiteSpace=wrap;html=1;" parent="1" vertex="1">
          <mxGeometry x="110" y="860" width="80" height="50" as="geometry" />
        </mxCell>
        <mxCell id="8gFQxWh9cMwkm3lbfBSL-4" style="rounded=0;orthogonalLoop=1;jettySize=auto;html=1;endArrow=none;endFill=0;exitX=1;exitY=0;exitDx=0;exitDy=0;" parent="1" source="8gFQxWh9cMwkm3lbfBSL-3" edge="1">
          <mxGeometry relative="1" as="geometry">
            <mxPoint x="410" y="760" as="targetPoint" />
            <mxPoint x="133" y="977" as="sourcePoint" />
          </mxGeometry>
        </mxCell>
        <mxCell id="zffY8TlYeJMGIJW_ohMT-1" value="puntuacuion" style="ellipse;whiteSpace=wrap;html=1;" parent="1" vertex="1">
          <mxGeometry x="80" y="1040" width="80" height="50" as="geometry" />
        </mxCell>
        <mxCell id="zffY8TlYeJMGIJW_ohMT-2" style="rounded=0;orthogonalLoop=1;jettySize=auto;html=1;endArrow=none;endFill=0;exitX=1;exitY=0;exitDx=0;exitDy=0;" parent="1" source="zffY8TlYeJMGIJW_ohMT-1" edge="1">
          <mxGeometry relative="1" as="geometry">
            <mxPoint x="400" y="770" as="targetPoint" />
            <mxPoint x="240" y="1030" as="sourcePoint" />
          </mxGeometry>
        </mxCell>
        <mxCell id="n-kFL3epUVGHEqGRfEe7-2" style="rounded=0;orthogonalLoop=1;jettySize=auto;html=1;entryX=0.5;entryY=0;entryDx=0;entryDy=0;" edge="1" parent="1" source="n-kFL3epUVGHEqGRfEe7-1" target="IEAdmJ6O3yn9Wwqw1_bm-1">
          <mxGeometry relative="1" as="geometry" />
        </mxCell>
        <mxCell id="n-kFL3epUVGHEqGRfEe7-1" value="isActivo" style="ellipse;whiteSpace=wrap;html=1;" vertex="1" parent="1">
          <mxGeometry y="36" width="110" height="58" as="geometry" />
        </mxCell>
      </root>
    </mxGraphModel>
  </diagram>
</mxfile>
